<?xml version="1.0" standalone="no"?>
<!DOCTYPE svg PUBLIC "-//W3C//DTD SVG 20010904//EN"
 "http://www.w3.org/TR/2001/REC-SVG-20010904/DTD/svg10.dtd">
<svg version="1.0" xmlns="http://www.w3.org/2000/svg"
 width="120.000000pt" height="100.000000pt" viewBox="0 0 238.000000 256.000000"
 preserveAspectRatio="xMidYMid meet">

<g transform="translate(0.000000,256.000000) scale(0.100000,-0.100000)"
fill="#7f18c4b6" stroke="none">
<path d="M710 1811 c0 -16 62 -82 84 -91 17 -6 20 -17 23 -71 1 -36 6 -76 12
-89 l10 -25 0 27 c2 62 48 129 108 154 70 30 171 10 212 -42 l18 -23 23 24
c65 69 191 75 258 12 31 -29 62 -89 63 -124 l1 -28 8 25 c4 14 8 53 9 87 1 59
3 63 30 78 28 14 81 73 81 89 0 3 -14 -1 -32 -10 -21 -11 -76 -20 -157 -26
-154 -10 -206 -22 -249 -55 -30 -22 -35 -23 -50 -10 -44 38 -88 50 -237 62
-99 8 -163 18 -183 29 -18 9 -32 12 -32 7z"/>
<path d="M950 1682 c-22 -12 -45 -36 -60 -65 -22 -41 -23 -50 -14 -96 10 -49
9 -54 -17 -89 -117 -159 -76 -411 85 -524 30 -22 30 -22 -7 22 -21 25 -53 74
-70 110 -30 62 -32 71 -32 180 0 109 1 118 30 167 32 57 47 63 78 36 14 -13
36 -18 77 -18 68 0 104 21 135 78 21 38 35 47 35 23 0 -21 47 -74 81 -91 39
-21 98 -19 137 5 18 11 38 20 46 20 7 0 26 -24 42 -52 27 -50 29 -60 29 -163
0 -104 -2 -114 -33 -179 -18 -39 -49 -90 -70 -115 l-37 -46 37 28 c47 37 83
83 116 155 51 107 30 284 -44 371 -23 27 -24 32 -12 74 10 38 9 52 -6 91 -25
66 -65 91 -144 91 -61 0 -65 -1 -101 -41 -21 -22 -41 -47 -45 -55 -5 -11 -7
-11 -12 -1 -12 27 -57 73 -85 87 -38 20 -97 19 -139 -3z m128 -6 c122 -64 100
-235 -34 -260 -46 -9 -119 25 -139 65 -22 42 -19 115 6 151 38 52 113 72 167
44z m318 -2 c46 -22 74 -70 74 -127 0 -37 -6 -53 -31 -82 -60 -68 -148 -68
-209 1 -24 28 -30 44 -30 81 0 108 100 172 196 127z"/>
<path d="M986 1594 c-22 -21 -20 -41 4 -47 11 -3 24 -17 30 -31 10 -28 34 -26
50 5 32 59 -38 120 -84 73z"/>
<path d="M1297 1592 c-22 -25 -21 -39 3 -45 11 -3 24 -17 30 -32 10 -26 12
-26 33 -12 12 8 23 27 25 42 7 54 -56 86 -91 47z"/>
<path d="M1154 1423 l-21 -28 23 -49 22 -49 21 41 c12 23 21 47 21 54 -1 12
-34 58 -42 58 -2 0 -13 -12 -24 -27z"/>
<path d="M1057 874 c-10 -11 -8 -52 2 -59 6 -3 14 3 20 12 10 17 10 17 11 1 0
-10 5 -18 10 -18 6 0 10 16 10 36 0 29 -3 34 -13 25 -9 -7 -17 -7 -23 -1 -6 6
-13 7 -17 4z"/>
<path d="M1137 873 c-11 -10 -8 -63 3 -63 6 0 10 16 10 35 0 36 -2 40 -13 28z"/>
<path d="M1217 874 c-4 -4 -7 -20 -7 -36 0 -35 23 -34 28 1 4 25 -10 46 -21
35z"/>
<path d="M1257 873 c-11 -10 -8 -63 3 -63 6 0 10 16 10 35 0 36 -2 40 -13 28z"/>
<path d="M1297 873 c-11 -10 -8 -63 3 -63 6 0 10 16 10 35 0 36 -2 40 -13 28z"/>
</g>
</svg>
